<?xml version="1.0" encoding="utf-8"?>
<svg viewBox="95.4216 55.9804 300.6325 119.5325" xmlns="http://www.w3.org/2000/svg">
  <defs>
    <style type="text/css">
	.st0{fill:#D79A2B;}
	.st1{fill:#4CA585;}
	.st2{fill:#B42673;}
	.st3{fill:#76777A;}
</style>
  </defs>
  <g transform="matrix(0.9999999999999999, 0, 0, 0.9999999999999999, -19.07843780517578, -0.5870290398597753)">
    <path d="M334,137.7l10,0c0.8-2.7,0.1-5.8-2.1-8c-2.2-2.1-5.2-2.8-7.9-2.1L334,137.7z"/>
    <path class="st0" d="M334,116.4c5.6-0.6,11.5,1.2,15.8,5.5c4.3,4.3,6.1,10.2,5.5,15.8l11.9,0c0.6-8.7-2.4-17.5-9-24.2 c-6.6-6.6-15.5-9.6-24.1-9L334,116.4z"/>
    <path class="st1" d="M334,92.5c11.8-0.6,23.7,3.6,32.7,12.5c9,9,13.2,20.9,12.6,32.7l11.9,0c0.6-14.8-4.8-29.8-16-41.1 c-11.3-11.3-26.3-16.6-41.1-16L334,92.5z"/>
    <path class="st2" d="M334,68.5c17.9-0.6,36,5.9,49.6,19.5c13.6,13.6,20.2,31.7,19.6,49.6l11.9,0c0.6-20.9-7.1-42-23.1-58 c-15.9-15.9-37.1-23.6-58-23L334,68.5z"/>
    <g>
      <path d="M141.9,92h-6.8V76.6h-13.6V92h-6.8V58.2h6.8v12.5h13.6V58.2h6.8V92z"/>
      <path d="M156.8,62.9h-7.1v-5.5h7.1V62.9z M156.5,92h-6.6V66.6h6.6V92z"/>
      <path d="M186.5,88.9c0,4.3-1.1,7.5-3.2,9.6c-2.1,2.1-5.3,3.1-9.6,3.1c-2.9,0-5.7-0.4-8.5-1.1v-5.2h0.8c0.8,0.4,2,0.7,3.4,1 c1.4,0.3,3.1,0.5,4.9,0.5c3.9,0,5.9-2.2,5.9-6.6v-1.6c-1.3,1.1-2.6,1.9-3.9,2.3c-1.3,0.5-2.7,0.7-4.1,0.7c-3,0-5.4-1.1-7.1-3.3 c-1.7-2.2-2.6-5.3-2.6-9.2c0-2.6,0.5-4.8,1.4-6.9c0.9-2,2.2-3.6,3.9-4.7c1.7-1.1,3.5-1.7,5.5-1.7c1.3,0,2.5,0.2,3.6,0.5 c1.1,0.3,2.1,0.8,3.2,1.5l0.3-1.2h6V88.9z M180,72.2c-1.2-0.8-2.7-1.2-4.5-1.2c-2,0-3.5,0.7-4.7,2.1c-1.1,1.4-1.7,3.4-1.7,6 c0,5.2,1.8,7.7,5.3,7.7c1.9,0,3.8-0.8,5.6-2.5V72.2z"/>
      <path d="M216.7,92H210V77.9c0-2.3-0.3-4-1-4.9c-0.7-1-1.8-1.5-3.4-1.5c-1.1,0-2.1,0.2-3.1,0.7c-1,0.5-1.9,1-2.6,1.6V92h-6.4V56.7 h6.4v12.9c1.1-1.1,2.3-2,3.8-2.7s3-1,4.6-1c2.6,0,4.7,0.8,6.2,2.4s2.2,3.9,2.2,6.9V92z"/>
      <path d="M230.1,92h-6.4V56.7h6.4V92z"/>
      <path d="M252.8,89.3c-2.3,2.2-5.1,3.2-8.6,3.2c-2.5,0-4.5-0.7-6.1-2.1c-1.6-1.4-2.4-3.3-2.4-5.6c0-1.5,0.3-2.8,0.9-3.9 s1.5-2,2.7-2.7c1.2-0.7,2.7-1.3,4.7-1.7c1.9-0.4,4.9-0.7,8.9-0.9v-0.9c0-1.3-0.5-2.3-1.6-3c-1.1-0.7-2.6-1.1-4.6-1.1 c-1.2,0-2.4,0.1-3.5,0.3c-1.1,0.2-2.6,0.7-4.6,1.3h-0.6v-5c1.4-0.4,2.9-0.7,4.6-1c1.7-0.2,3.2-0.3,4.6-0.3c4.2,0,7.2,0.7,9.2,2.1 c1.9,1.4,2.9,3.7,2.9,6.8V92h-6.4V89.3z M252.8,79.3c-2.9,0.2-5.1,0.4-6.5,0.8c-1.5,0.3-2.5,0.8-3.2,1.5s-1,1.6-1,2.7 c0,1.2,0.4,2.2,1.1,2.9c0.7,0.7,1.7,1.1,3.1,1.1c2.5,0,4.6-0.8,6.5-2.3V79.3z"/>
      <path d="M289.1,92h-6.5V77.9c0-2.3-0.3-4-1-4.9c-0.7-1-1.8-1.5-3.3-1.5c-1,0-2,0.2-3.1,0.6c-1.1,0.4-2,1-2.6,1.6V92h-6.4V66.6h6.4 v3c1-1.1,2.2-2,3.7-2.6c1.5-0.7,3-1,4.4-1c2.7,0,4.8,0.8,6.2,2.4c1.5,1.6,2.2,3.9,2.2,6.9V92z"/>
      <path d="M318.7,92h-6.4v-3c-1.6,1.4-2.9,2.3-4,2.8s-2.3,0.7-3.7,0.7c-3,0-5.4-1.2-7.2-3.5c-1.7-2.3-2.6-5.5-2.6-9.5 c0-2.6,0.5-4.9,1.4-7c0.9-2.1,2.2-3.7,3.9-4.9c1.7-1.1,3.5-1.7,5.6-1.7c1.2,0,2.2,0.1,3.2,0.4c0.9,0.3,2.1,0.7,3.4,1.5V56.7h6.4 V92z M312.2,72.1c-1.4-0.9-2.8-1.3-4.4-1.3c-2.1,0-3.7,0.8-4.8,2.3c-1.1,1.5-1.7,3.6-1.7,6.3c0,2.6,0.4,4.7,1.3,6 c0.9,1.4,2.3,2.1,4.2,2.1c1,0,2-0.2,2.8-0.6c0.8-0.4,1.7-0.9,2.5-1.6V72.1z"/>
      <path d="M115,137v-29.1h8.4c2.6,0,4.5,0.2,5.9,0.5c1.4,0.3,2.5,1,3.3,2s1.3,2.3,1.3,4c0,2.6-1.3,4.5-3.8,5.9v0.2 c1.9,0.4,3.4,1.3,4.5,2.6c1.1,1.3,1.7,3,1.7,5c0,2.7-0.9,4.8-2.8,6.5c-1.9,1.6-4.7,2.5-8.5,2.5H115z M118.7,111.2v8.4h4.9 c2.5,0,4.1-0.4,5-1.1c0.9-0.8,1.3-1.9,1.3-3.5c0-1.2-0.4-2.1-1.1-2.8s-2.6-1-5.6-1H118.7z M118.7,122.9v10.8h5 c3.5,0,5.8-0.5,7-1.5s1.7-2.3,1.7-4c0-2-0.5-3.4-1.6-4.2s-3.1-1.2-6.1-1.2H118.7z"/>
      <path d="M154.5,119.2h-0.2l-1-0.2c-0.7-0.1-1.5-0.2-2.3-0.2c-1.9,0-4,0.9-6.1,2.7V137h-3.6v-21.8h3.6v3.2c2.6-2.1,4.9-3.2,7-3.2 c0.8,0,1.7,0.1,2.6,0.2V119.2z"/>
      <path d="M166.1,137.6c-3,0-5.4-1-7.1-3.1c-1.8-2-2.7-4.9-2.7-8.4c0-3.6,0.9-6.4,2.6-8.4c1.8-2.1,4.1-3.1,7.1-3.1 c3,0,5.3,1,7.1,3.1s2.7,4.9,2.7,8.4c0,3.6-0.9,6.4-2.7,8.4C171.5,136.6,169.1,137.6,166.1,137.6z M166.1,117.7 c-4.1,0-6.1,2.8-6.1,8.4c0,2.7,0.5,4.8,1.6,6.2c1.1,1.4,2.6,2.1,4.5,2.1c1.9,0,3.4-0.7,4.5-2.1s1.6-3.5,1.6-6.2 C172.2,120.5,170.2,117.7,166.1,117.7z"/>
      <path d="M197.9,137h-3.5v-2.3c-1.7,1.3-3.1,2.1-4.2,2.4c-1.1,0.3-2.2,0.5-3.4,0.5c-1.9,0-3.5-0.7-4.9-2c-1.3-1.3-2-3-2-5 c0-2.6,1-4.6,2.9-5.8c1.9-1.3,5.8-2,11.6-2.2V122c0-1.4-0.4-2.4-1.3-3.1s-2.3-1-4.4-1c-1.9,0-4.2,0.5-6.7,1.5h-0.2v-3.7 c2.6-0.7,4.9-1,6.9-1c3.3,0,5.6,0.6,7.1,1.9c1.4,1.3,2.1,3.1,2.1,5.7V137z M194.3,131.6v-6.1c-4.7,0.2-7.7,0.7-8.9,1.5 s-1.8,1.9-1.8,3.3c0,2.5,1.5,3.8,4.5,3.8C190.1,134.2,192.2,133.3,194.3,131.6z"/>
      <path d="M221.9,137h-3.6v-2.3c-2.2,1.9-4.4,2.9-6.8,2.9c-2.5,0-4.5-1-6-3c-1.5-2-2.2-4.8-2.2-8.3c0-3.5,0.9-6.3,2.7-8.5 c1.8-2.1,4-3.2,6.7-3.2c2,0,3.9,0.5,5.7,1.5v-9.5h3.6V137z M218.3,131.6v-12.5c-1.7-0.8-3.3-1.2-5.1-1.2c-2,0-3.5,0.7-4.6,2.1 c-1.1,1.4-1.7,3.5-1.7,6.1c0,5.3,1.8,7.9,5.4,7.9C214.3,134.1,216.3,133.3,218.3,131.6z"/>
      <path d="M232.5,136l-0.2,1h-3.3v-30.4h3.6v10.9c2.2-1.9,4.5-2.9,7-2.9c2.5,0,4.5,1,5.9,3s2.2,4.8,2.2,8.4c0,3.5-0.9,6.3-2.7,8.4 s-4,3.2-6.6,3.2C236.2,137.6,234.3,137.1,232.5,136z M232.5,120.6v12.5c1.7,0.8,3.4,1.2,5.1,1.2c4.2,0,6.3-2.8,6.3-8.3 c0-5.3-1.8-7.9-5.3-7.9C236.6,118.1,234.5,118.9,232.5,120.6z"/>
      <path d="M269.5,137H266v-2.3c-1.7,1.3-3.1,2.1-4.2,2.4s-2.2,0.5-3.4,0.5c-1.9,0-3.5-0.7-4.9-2c-1.3-1.3-2-3-2-5 c0-2.6,1-4.6,2.9-5.8c1.9-1.3,5.8-2,11.6-2.2V122c0-1.4-0.4-2.4-1.2-3.1s-2.3-1-4.4-1c-1.9,0-4.2,0.5-6.7,1.5h-0.2v-3.7 c2.6-0.7,4.9-1,6.9-1c3.3,0,5.6,0.6,7.1,1.9s2.2,3.1,2.2,5.7V137z M266,131.6v-6.1c-4.7,0.2-7.7,0.7-8.9,1.5s-1.8,1.9-1.8,3.3 c0,2.5,1.5,3.8,4.5,3.8C261.7,134.2,263.8,133.3,266,131.6z"/>
      <path d="M294.1,137h-3.6v-12.4c0-2.6-0.3-4.4-1-5.2c-0.7-0.9-1.8-1.3-3.5-1.3c-1.8,0-3.9,0.9-6.1,2.6V137h-3.6v-21.8h3.6v2.4 c2.4-2,4.7-3,7.1-3c4.7,0,7,2.8,7,8.3V137z"/>
      <path d="M318.1,137h-3.6v-2.3c-2.2,1.9-4.4,2.9-6.8,2.9c-2.5,0-4.5-1-6-3c-1.5-2-2.2-4.8-2.2-8.3c0-3.5,0.9-6.3,2.7-8.5 c1.8-2.1,4-3.2,6.7-3.2c2,0,3.9,0.5,5.7,1.5v-9.5h3.6V137z M314.5,131.6v-12.5c-1.7-0.8-3.3-1.2-5.1-1.2c-2,0-3.5,0.7-4.6,2.1 s-1.7,3.5-1.7,6.1c0,5.3,1.8,7.9,5.4,7.9C310.5,134.1,312.5,133.3,314.5,131.6z"/>
    </g>
    <g>
      <path class="st3" d="M114.5,170.9v-18.8h5.4c1.7,0,2.9,0.1,3.8,0.3s1.6,0.6,2.2,1.3c0.6,0.6,0.8,1.5,0.8,2.6 c0,1.7-0.8,2.9-2.4,3.8v0.1c1.2,0.3,2.2,0.8,2.9,1.7c0.7,0.9,1.1,1.9,1.1,3.2c0,1.7-0.6,3.1-1.8,4.2c-1.2,1.1-3,1.6-5.5,1.6H114.5 z M116.9,154.3v5.4h3.1c1.6,0,2.7-0.2,3.3-0.7c0.6-0.5,0.9-1.2,0.9-2.3c0-0.8-0.2-1.4-0.7-1.8c-0.5-0.4-1.7-0.6-3.6-0.6H116.9z M116.9,161.8v7h3.2c2.3,0,3.8-0.3,4.5-0.9c0.7-0.6,1.1-1.5,1.1-2.6c0-1.3-0.4-2.2-1.1-2.7c-0.7-0.5-2-0.8-3.9-0.8H116.9z"/>
      <path class="st3" d="M151.5,170.9h-2.3v-1.6c-1.6,1.3-3.1,2-4.6,2c-1.5,0-2.6-0.5-3.4-1.4c-0.8-0.9-1.2-2.2-1.2-4v-9.2h2.3v8 c0,1.6,0.2,2.7,0.6,3.3s1.2,0.9,2.3,0.9c1.2,0,2.5-0.6,3.9-1.7v-10.5h2.3V170.9z"/>
      <path class="st3" d="M167.2,154.5h-2.6V152h2.6V154.5z M167.1,170.9h-2.3v-14.1h2.3V170.9z"/>
      <path class="st3" d="M182.6,170.9h-2.3v-19.6h2.3V170.9z"/>
      <path class="st3" d="M203,170.8c-1,0.3-2,0.4-2.8,0.4c-2.8,0-4.3-1.6-4.3-4.9v-7.5h-1.6v-2h1.6v-4.1h2.3v4.1h4.8v2h-4.8v6.4 c0,1.2,0.1,2,0.2,2.4c0.1,0.5,0.4,0.8,0.7,1.1c0.3,0.3,0.9,0.4,1.7,0.4c0.6,0,1.3-0.2,2.1-0.5h0.1V170.8z"/>
      <path class="st3" d="M239.3,153.6h-0.1l-0.7-0.2c-0.5-0.1-1-0.2-1.4-0.2c-1,0-1.7,0.2-2.1,0.7c-0.5,0.4-0.7,1.3-0.7,2.5v0.5h4.2v2 h-4.1v12.1h-2.3v-12.1h-1.6v-2h1.6v-0.5c0-1.7,0.4-3,1.2-3.9c0.8-0.9,2-1.3,3.5-1.3c0.8,0,1.7,0.1,2.5,0.3V153.6z"/>
      <path class="st3" d="M254.8,171.3c-1.9,0-3.5-0.7-4.6-2c-1.1-1.3-1.7-3.1-1.7-5.5c0-2.3,0.6-4.1,1.7-5.5c1.1-1.3,2.7-2,4.6-2 c1.9,0,3.4,0.7,4.6,2c1.1,1.3,1.7,3.2,1.7,5.4c0,2.3-0.6,4.1-1.7,5.4S256.7,171.3,254.8,171.3z M254.8,158.5 c-2.6,0-3.9,1.8-3.9,5.4c0,1.8,0.3,3.1,1,4c0.7,0.9,1.7,1.4,2.9,1.4c1.2,0,2.2-0.5,2.9-1.4c0.7-0.9,1-2.2,1-4 C258.7,160.3,257.4,158.5,254.8,158.5z"/>
      <path class="st3" d="M281.9,159.4h-0.1l-0.6-0.1c-0.5-0.1-1-0.1-1.5-0.1c-1.3,0-2.6,0.6-4,1.7v10h-2.3v-14.1h2.3v2.1 c1.6-1.4,3.2-2.1,4.6-2.1c0.5,0,1.1,0,1.7,0.2V159.4z"/>
      <path class="st3" d="M309.3,170.1v-2.7h0.1c1.6,1.2,3.3,1.8,5,1.8c2.2,0,3.2-0.7,3.2-2.1c0-0.7-0.2-1.2-0.7-1.4s-1.4-0.5-2.9-0.8 c-1.9-0.4-3.2-0.9-3.8-1.6c-0.6-0.7-0.9-1.5-0.9-2.6c0-1.2,0.5-2.3,1.5-3.1c1-0.8,2.3-1.2,4-1.2c1.6,0,3.1,0.4,4.6,1.1v2.5h-0.1 c-1.5-1.1-3-1.6-4.6-1.6c-0.8,0-1.5,0.2-2.1,0.5c-0.6,0.3-0.9,0.8-0.9,1.5c0,0.7,0.2,1.1,0.7,1.4c0.5,0.3,1.4,0.6,2.9,0.9 c1.2,0.2,2.1,0.5,2.7,0.8c0.6,0.3,1,0.7,1.4,1.2c0.4,0.5,0.6,1.2,0.6,2.1c0,1.3-0.5,2.4-1.6,3.2c-1,0.8-2.4,1.2-4.2,1.2 C312.5,171.3,310.9,170.9,309.3,170.1z"/>
      <path class="st3" d="M334.3,170.2v5.9H332v-19.3h2.3v1.5c1.4-1.2,2.9-1.9,4.5-1.9c1.6,0,2.9,0.6,3.8,1.9c0.9,1.3,1.4,3.1,1.4,5.3 c0,2.3-0.6,4.1-1.7,5.4c-1.2,1.4-2.6,2.1-4.3,2.1C336.6,171.2,335.4,170.9,334.3,170.2z M334.3,160.3v8c1.1,0.5,2.2,0.8,3.3,0.8 c1.3,0,2.3-0.4,3-1.3c0.7-0.9,1.1-2.2,1.1-4c0-3.4-1.1-5.1-3.4-5.1C337,158.7,335.7,159.2,334.3,160.3z"/>
      <path class="st3" d="M367.7,164.1h-10.1c0,1.6,0.4,2.8,1.3,3.7c0.9,0.9,2.1,1.3,3.6,1.3c1.8,0,3.4-0.6,4.8-1.7h0.1v2.6 c-1.8,0.8-3.5,1.2-4.9,1.2c-2.3,0-4.1-0.6-5.3-1.9c-1.3-1.3-1.9-3.1-1.9-5.4c0-2.3,0.6-4.1,1.8-5.5c1.2-1.4,2.8-2,4.8-2 c1.8,0,3.3,0.6,4.3,1.7s1.5,2.7,1.5,4.7V164.1z M365.5,162.3c0-2.6-1.2-3.9-3.6-3.9c-1.2,0-2.2,0.4-2.9,1.1 c-0.7,0.7-1.2,1.7-1.3,2.8H365.5z"/>
      <path class="st3" d="M391.3,164.1h-10.1c0,1.6,0.4,2.8,1.3,3.7c0.9,0.9,2.1,1.3,3.6,1.3c1.8,0,3.4-0.6,4.8-1.7h0.1v2.6 c-1.8,0.8-3.5,1.2-4.9,1.2c-2.3,0-4.1-0.6-5.3-1.9c-1.3-1.3-1.9-3.1-1.9-5.4c0-2.3,0.6-4.1,1.8-5.5c1.2-1.4,2.8-2,4.8-2 c1.8,0,3.3,0.6,4.3,1.7s1.5,2.7,1.5,4.7V164.1z M389.1,162.3c0-2.6-1.2-3.9-3.6-3.9c-1.2,0-2.2,0.4-2.9,1.1 c-0.7,0.7-1.2,1.7-1.3,2.8H389.1z"/>
      <path class="st3" d="M414.6,170.9h-2.3v-1.5c-1.4,1.2-2.9,1.9-4.4,1.9c-1.6,0-2.9-0.6-3.9-1.9c-1-1.3-1.4-3.1-1.4-5.4 c0-2.3,0.6-4.1,1.8-5.5c1.2-1.4,2.6-2.1,4.3-2.1c1.3,0,2.5,0.3,3.7,1v-6.1h2.3V170.9z M412.3,167.5v-8.1c-1.1-0.5-2.2-0.8-3.3-0.8 c-1.3,0-2.3,0.5-3,1.4c-0.7,0.9-1.1,2.2-1.1,4c0,3.4,1.2,5.1,3.5,5.1C409.7,169.1,411,168.5,412.3,167.5z"/>
    </g>
  </g>
</svg>