<?xml version="1.0" encoding="utf-8"?>
<!-- Generator: Adobe Illustrator 25.2.3, SVG Export Plug-In . SVG Version: 6.00 Build 0)  -->
<svg version="1.1" id="Layer_1" xmlns="http://www.w3.org/2000/svg" xmlns:xlink="http://www.w3.org/1999/xlink" x="0px" y="0px"
	 width="437px" height="279px" viewBox="0 0 437 279" style="enable-background:new 0 0 437 279;" xml:space="preserve">
<style type="text/css">
	.st0{fill:#ED3D33;}
	.st1{fill:#FFFFFF;}
	.st2{fill:#002B52;}
</style>
<rect class="st0" width="437" height="279"/>
<g id="Group_2929" transform="translate(-47.001 7)">
	<path id="Path_235" class="st1" d="M415.2,124.1C168.3-11.1,92,134.3,92,134.3v26.9c0,0,76.3-168.9,323.2-33.7
		c3.9,2.1,7.8,4.2,11.6,6.3v-3.5C423,128.4,419.1,126.3,415.2,124.1"/>
	<path id="Path_236" class="st2" d="M414,110.6C195.3-15,102.8,87.7,92,103.6V129c0,0,76.3-146.7,323.2-11.4
		c3.9,2.1,7.8,4.2,11.6,6.3V118C422.6,115.5,418.4,113,414,110.6"/>
	<path id="Path_237" class="st1" d="M129.8,126.9h9.9v16.7H156v-16.7h9.9v44.7H156v-19.3h-16.3v19.3h-9.9V126.9z"/>
	<g id="Group_130" transform="translate(171.313 125.736)">
		<path id="Path_238" class="st1" d="M18.4,32.4c-2.9,0-9.3,0.3-9.3,4.4c0,2.3,2.4,3.3,4.5,3.3c3.7,0,7.2-2,7.2-5.7v-2L18.4,32.4z
			 M20.8,42h-0.1c-2.1,3.3-5.9,4.6-9.7,4.6C5.2,46.6,0,43.3,0,37.1c0-10.6,12.9-10.8,20.8-10.8c0-3.3-2.8-5.5-6.1-5.5
			c-3,0-5.8,1.4-7.7,3.7L2,19.3c3.7-3.3,8.6-5,13.5-4.9c11.1,0,14,5.6,14,15.9v15.6h-8.7L20.8,42z"/>
		<path id="Path_239" class="st1" d="M36,15.2h9.1v4.2h0.1c1.9-3.2,5.3-5.1,9-4.9c4.3,0,7.8,1.8,9.5,5.5c2.2-3.9,5.2-5.5,9.7-5.5
			c8.3,0,10.9,5.9,10.9,13.3v18.1h-9.5V28c0-2.8-1.1-5.2-4.2-5.2c-4.4,0-5.8,3.1-5.8,6.9v16.2h-9.5V29.6c0-2.3,0.1-6.9-4.2-6.9
			c-4.9,0-5.7,3.9-5.7,7.8v15.3h-9.5L36,15.2z"/>
		<path id="Path_240" class="st1" d="M91.1,15.2h9.5v30.7h-9.5V15.2z M95.9,0c3,0,5.5,2.5,5.5,5.5S98.9,11,95.9,11s-5.5-2.5-5.5-5.5
			l0,0C90.4,2.5,92.8,0,95.9,0"/>
	</g>
	<rect id="Rectangle_14" x="278.9" y="123.8" class="st1" width="9.5" height="47.8"/>
	<path id="Path_241" class="st1" d="M316.1,148.5h-8.3v10.2c0,3.3,0.4,5.7,4.5,5.7c1,0,3-0.1,3.8-0.9v7.9c-2.1,0.7-4.4,1-6.6,0.9
		c-6.3,0-11.2-2.6-11.2-9.3v-14.6h-6.1v-7.6h6.1v-9.1h9.5v9.1h8.3V148.5z"/>
	<path id="Path_242" class="st1" d="M336.8,164c4.7,0,7.6-3.2,7.6-7.8s-2.8-7.8-7.6-7.8s-7.6,3.2-7.6,7.8S332.1,164,336.8,164
		 M336.8,140.1c9.5,0,17.1,6.3,17.1,16.1s-7.6,16.1-17.1,16.1s-17.1-6.3-17.1-16.1S327.3,140.1,336.8,140.1"/>
	<path id="Path_243" class="st1" d="M359.4,140.9h9.1v4.2h0.1c1.9-3.2,5.3-5.1,9-4.9c9.6,0,11.4,6.3,11.4,14.5v16.9h-9.5v-15
		c0-3.5-0.1-8.1-4.9-8.1c-4.9,0-5.7,3.9-5.7,7.8v15.3h-9.5L359.4,140.9z"/>
	<path id="Path_244" class="st1" d="M144.3,195.4h1.8v6.7c-0.8,0.7-1.8,1.3-2.9,1.6c-1.1,0.4-2.3,0.6-3.5,0.6
		c-1.6,0-3.3-0.4-4.7-1.1c-1.4-0.7-2.5-1.8-3.3-3.2c-1.6-2.8-1.6-6.3,0-9.1c0.8-1.3,1.9-2.4,3.3-3.2c1.5-0.8,3.1-1.2,4.7-1.1
		c1.3,0,2.5,0.2,3.7,0.6c1.1,0.4,2,1,2.8,1.9l-1.1,1.2c-1.4-1.4-3.3-2.1-5.3-2c-1.3,0-2.7,0.3-3.8,0.9c-1.1,0.6-2,1.5-2.7,2.6
		c-0.7,1.1-1,2.4-1,3.7c0,1.3,0.3,2.6,1,3.7c0.6,1.1,1.6,2,2.7,2.6c1.2,0.6,2.5,1,3.8,0.9c1.6,0.1,3.2-0.4,4.6-1.3L144.3,195.4z"/>
	<path id="Path_245" class="st1" d="M150.9,191h1.8v13.1h-1.8V191z M150.9,187.8c-0.2-0.2-0.4-0.6-0.4-0.9c0-0.3,0.1-0.6,0.4-0.9
		c0.5-0.5,1.3-0.5,1.8,0c0.2,0.2,0.4,0.5,0.4,0.9c0,0.7-0.6,1.3-1.3,1.3C151.5,188.1,151.1,188,150.9,187.8"/>
	<path id="Path_246" class="st1" d="M168.7,191l-5.8,13.1H161l-5.8-13.1h1.8l4.9,11.2l5-11.2H168.7z"/>
	<g id="Group_131" transform="translate(170.748 185.617)">
		<path id="Path_247" class="st1" d="M0.4,5.4h1.8v13.1H0.4V5.4z M0.4,2.1C0.1,1.9,0,1.6,0,1.2c0-0.3,0.1-0.6,0.4-0.9
			c0.5-0.5,1.3-0.5,1.8,0c0.2,0.2,0.4,0.5,0.4,0.9c0,0.7-0.6,1.3-1.3,1.3C1,2.5,0.6,2.4,0.4,2.1"/>
		<path id="Path_248" class="st1" d="M17.7,6.7c1,1.1,1.6,2.6,1.5,4.2v7.6h-1.8v-7.4c0.1-1.1-0.3-2.3-1-3.1
			c-0.8-0.8-1.8-1.1-2.9-1.1c-1.2-0.1-2.5,0.4-3.4,1.3c-0.9,0.9-1.3,2.2-1.2,3.5v6.9H7.1V5.4h1.7v2.4c0.5-0.8,1.2-1.4,2-1.9
			c0.9-0.5,1.9-0.7,3-0.7C15.2,5.2,16.7,5.7,17.7,6.7"/>
		<path id="Path_249" class="st1" d="M32,15.8c0.7-0.4,1.4-1,1.8-1.7c0.4-0.8,0.7-1.6,0.6-2.5c0-0.9-0.2-1.7-0.6-2.5
			c-0.4-0.7-1-1.3-1.8-1.7c-1.6-0.8-3.5-0.8-5.1,0c-0.7,0.4-1.4,1-1.8,1.7c-0.9,1.6-0.9,3.4,0,5c0.4,0.7,1,1.3,1.8,1.7
			c0.8,0.4,1.7,0.6,2.6,0.6C30.4,16.4,31.2,16.2,32,15.8 M36.2,5.4v11.5c0.1,1.8-0.4,3.6-1.6,4.9c-1.4,1.2-3.1,1.7-4.9,1.6
			c-1.2,0-2.3-0.2-3.5-0.5c-1-0.3-1.9-0.8-2.7-1.5l0.9-1.3c0.7,0.6,1.5,1,2.3,1.3c0.9,0.3,1.9,0.5,2.9,0.5c1.3,0.1,2.6-0.3,3.7-1.2
			c0.9-1,1.3-2.3,1.2-3.6v-1.7c-0.5,0.8-1.3,1.5-2.2,1.9c-0.9,0.4-1.9,0.7-3,0.6c-1.2,0-2.3-0.3-3.4-0.8c-1-0.5-1.8-1.3-2.4-2.3
			c-0.6-1-0.9-2.1-0.9-3.3c0-1.2,0.3-2.3,0.9-3.3c0.6-1,1.4-1.7,2.4-2.2c1-0.5,2.2-0.8,3.4-0.8c1,0,2.1,0.2,3,0.7
			c0.9,0.4,1.6,1.1,2.2,1.9V5.4L36.2,5.4z"/>
	</g>
	<path id="Path_250" class="st1" d="M237.7,191l-5,13.1H231l-4.1-10.7l-4.1,10.7h-1.7l-4.9-13.1h1.7l4.1,11.1l4.2-11.1h1.5l4.2,11.1
		l4.2-11.1H237.7z"/>
	<g id="Group_132" transform="translate(238.846 188.137)">
		<path id="Path_251" class="st1" d="M7.6,14c0.7-0.5,1.3-1.2,1.6-2V9.9H5.1c-2.2,0-3.4,0.8-3.4,2.3c0,0.7,0.3,1.4,0.9,1.8
			c0.7,0.5,1.6,0.7,2.4,0.7C6,14.7,6.9,14.5,7.6,14 M9.6,4c1,1,1.5,2.4,1.4,3.8V16H9.3v-2c-0.4,0.7-1,1.3-1.8,1.6
			c-0.9,0.4-1.8,0.6-2.8,0.6c-1.2,0.1-2.5-0.3-3.5-1c-1.5-1.3-1.7-3.5-0.5-5.1c0.1-0.1,0.2-0.3,0.4-0.4c1.1-0.8,2.5-1.1,3.9-1h4.2
			V7.8c0.1-1-0.3-1.9-0.9-2.6c-0.8-0.6-1.8-1-2.8-0.9c-0.8,0-1.6,0.1-2.4,0.4C2.4,5,1.7,5.4,1.1,5.9L0.3,4.5c0.7-0.6,1.5-1,2.4-1.3
			c0.9-0.3,1.9-0.5,2.9-0.5C7.1,2.7,8.5,3.1,9.6,4"/>
		<path id="Path_252" class="st1" d="M16.3,15.6c-0.8-0.2-1.6-0.6-2.3-1.2l0.8-1.4c0.6,0.5,1.3,0.8,2.1,1.1c0.8,0.3,1.7,0.4,2.6,0.4
			c0.9,0.1,1.8-0.1,2.7-0.6c0.6-0.3,0.9-0.9,0.9-1.6c0-0.4-0.2-0.8-0.5-1.1c-0.3-0.3-0.8-0.5-1.2-0.6c-0.6-0.2-1.3-0.3-1.9-0.4
			c-0.9-0.2-1.7-0.4-2.6-0.6c-0.6-0.2-1.2-0.6-1.7-1.1c-0.5-0.6-0.7-1.3-0.7-2.1c0-1.1,0.5-2.1,1.4-2.7c1.1-0.8,2.5-1.1,3.8-1
			c0.9,0,1.7,0.1,2.5,0.3c0.7,0.2,1.5,0.5,2.1,0.9l-0.8,1.4c-1.1-0.8-2.5-1.2-3.9-1.1c-0.9-0.1-1.8,0.1-2.6,0.6
			c-0.5,0.3-0.9,0.9-0.9,1.6c0,0.5,0.2,0.9,0.5,1.2c0.3,0.3,0.8,0.5,1.2,0.7c0.7,0.2,1.3,0.3,2,0.4c0.8,0.2,1.7,0.4,2.5,0.6
			c0.6,0.2,1.2,0.5,1.6,1c0.5,0.6,0.7,1.3,0.7,2c0,1.1-0.5,2.1-1.4,2.7c-1.2,0.7-2.6,1.1-4,1C18.3,16.1,17.3,16,16.3,15.6"/>
		<path id="Path_253" class="st1" d="M34.9,15.2c-0.4,0.3-0.8,0.5-1.2,0.7c-0.5,0.2-1,0.2-1.5,0.2c-1.9,0.2-3.6-1.2-3.8-3.1
			c0-0.2,0-0.5,0-0.7V4.4H26V2.9h2.3V0h1.8v2.9h4v1.5h-4v7.8c0,0.6,0.2,1.3,0.6,1.8c0.4,0.4,1.1,0.7,1.7,0.6c0.4,0,0.7-0.1,1.1-0.2
			c0.3-0.1,0.6-0.3,0.9-0.5L34.9,15.2z"/>
		<path id="Path_254" class="st1" d="M39.6,5.5c-0.9,0.8-1.4,2-1.5,3.2h9.3c-0.1-1.2-0.6-2.3-1.5-3.2C44.1,3.9,41.4,3.9,39.6,5.5
			 M49.1,10h-11c0.1,1.3,0.6,2.5,1.6,3.3c1,0.9,2.3,1.3,3.6,1.3c0.8,0,1.5-0.1,2.2-0.4c0.7-0.3,1.3-0.7,1.8-1.3l1,1.1
			c-0.6,0.7-1.3,1.3-2.2,1.6c-0.9,0.4-1.9,0.6-2.9,0.5c-1.2,0-2.5-0.3-3.6-0.9c-1-0.6-1.9-1.4-2.4-2.4c-0.6-1-0.9-2.2-0.9-3.4
			c0-1.2,0.3-2.4,0.8-3.4c0.5-1,1.3-1.8,2.3-2.4c2-1.1,4.5-1.1,6.5,0C47,4.2,47.7,5,48.3,6c0.6,1.1,0.8,2.3,0.8,3.5L49.1,10z"/>
		<path id="Path_255" class="st1" d="M67.9,4.2c1,1.1,1.6,2.6,1.5,4.2V16h-1.8V8.6c0.1-1.1-0.3-2.3-1-3.1c-0.8-0.8-1.8-1.1-2.9-1.1
			c-1.2-0.1-2.5,0.4-3.4,1.3c-0.9,0.9-1.3,2.2-1.2,3.5V16h-1.8V2.9H59v2.4c0.5-0.8,1.2-1.4,2-1.9c0.9-0.5,1.9-0.7,3-0.7
			C65.4,2.7,66.8,3.2,67.9,4.2"/>
		<path id="Path_256" class="st1" d="M76.1,5.5c-0.9,0.8-1.4,2-1.5,3.2H84c-0.1-1.2-0.6-2.3-1.5-3.2C80.7,3.9,78,3.9,76.1,5.5
			 M85.6,10h-11c0.1,1.3,0.6,2.5,1.6,3.3c1,0.9,2.3,1.3,3.6,1.3c0.8,0,1.5-0.1,2.2-0.4c0.7-0.3,1.3-0.7,1.8-1.3l1,1.1
			c-0.6,0.7-1.3,1.3-2.2,1.6c-0.9,0.4-1.9,0.6-2.9,0.5c-1.2,0-2.5-0.3-3.6-0.9c-1-0.6-1.9-1.4-2.4-2.4c-0.6-1-0.9-2.2-0.9-3.4
			c0-1.2,0.3-2.4,0.8-3.4c0.5-1,1.3-1.8,2.3-2.4c2-1.1,4.5-1.1,6.5,0c1,0.6,1.7,1.4,2.3,2.4c0.6,1.1,0.8,2.3,0.8,3.5L85.6,10z"/>
	</g>
	<path id="Path_257" class="st1" d="M347.1,191l-5,13.1h-1.7l-4.1-10.7l-4.1,10.7h-1.7l-4.9-13.1h1.7l4.1,11.1l4.2-11.1h1.5
		l4.2,11.1l4.2-11.1H347.1z"/>
	<rect id="Rectangle_15" x="356.3" y="185.6" class="st1" width="1.8" height="18.5"/>
	<g id="Group_133" transform="translate(362.643 185.496)">
		<path id="Path_258" class="st1" d="M0.4,5.5h1.8v13.1H0.4V5.5z M0.4,2.3C0.1,2,0,1.7,0,1.4C0,1,0.1,0.7,0.4,0.5
			C0.9,0,1.7,0,2.2,0.5C2.5,0.7,2.6,1,2.6,1.3c0,0.7-0.6,1.3-1.3,1.3C1,2.6,0.6,2.5,0.4,2.3"/>
		<path id="Path_259" class="st1" d="M9.7,2.1C9.3,2.6,9.1,3.3,9.1,4v1.5h4V7h-4v11.6H7.4V7H5.1V5.5h2.3V3.9c-0.1-1,0.3-2.1,1-2.8
			c0.8-0.7,1.9-1.1,2.9-1c0.5,0,1,0.1,1.4,0.2c0.4,0.1,0.8,0.3,1.2,0.6l-0.6,1.3c-0.5-0.4-1.2-0.7-1.9-0.6
			C10.8,1.4,10.2,1.7,9.7,2.1"/>
		<path id="Path_260" class="st1" d="M17.2,8.1c-0.9,0.8-1.4,2-1.5,3.2h9.3C25,10.1,24.5,9,23.6,8.1C21.8,6.5,19.1,6.5,17.2,8.1
			 M26.8,12.6h-11c0.1,1.3,0.6,2.5,1.6,3.3c1,0.9,2.3,1.3,3.6,1.3c0.8,0,1.5-0.1,2.2-0.4c0.7-0.3,1.3-0.7,1.8-1.3l1,1.1
			c-0.6,0.7-1.3,1.3-2.2,1.6c-0.9,0.4-1.9,0.6-2.9,0.5c-1.2,0-2.5-0.3-3.6-0.9c-1-0.6-1.9-1.4-2.4-2.4c-0.6-1-0.9-2.2-0.9-3.4
			c0-1.2,0.3-2.4,0.8-3.4c0.5-1,1.3-1.8,2.3-2.4c2-1.1,4.5-1.1,6.5,0c1,0.6,1.7,1.4,2.3,2.4c0.6,1.1,0.8,2.3,0.8,3.5L26.8,12.6z"/>
	</g>
</g>
</svg>
